REM DIRINDEX 1\2,1\3
REM DIRNAME cjc039,folder01,folder02
TITLE ""
FILE "2161-2180.mp3" MP3
  TRACK 01 AUDIO
    TITLE "0:"
    INDEX 01 00:00:00
  TRACK 02 AUDIO
    TITLE "2:cjc039_3321"
    INDEX 01 00:00:27
  TRACK 03 AUDIO
    TITLE "0:"
    INDEX 01 00:01:26
  TRACK 04 AUDIO
    TITLE "3:cjc039_3322"
    INDEX 01 00:02:04
  TRACK 05 AUDIO
    TITLE "0:"
    INDEX 01 00:06:30
  TRACK 06 AUDIO
    TITLE "2:cjc039_3323"
    INDEX 01 00:08:09
  TRACK 07 AUDIO
    TITLE "0:"
    INDEX 01 00:09:38
  TRACK 08 AUDIO
    TITLE "3:cjc039_3324"
    INDEX 01 00:10:10
  TRACK 09 AUDIO
    TITLE "0:"
    INDEX 01 00:14:58
  TRACK 10 AUDIO
    TITLE "2:cjc039_3325"
    INDEX 01 00:16:34
  TRACK 11 AUDIO
    TITLE "0:"
    INDEX 01 00:17:29
  TRACK 12 AUDIO
    TITLE "3:cjc039_3326"
    INDEX 01 00:18:07
  TRACK 13 AUDIO
    TITLE "0:"
    INDEX 01 00:22:03
  TRACK 14 AUDIO
    TITLE "2:cjc039_3327"
    INDEX 01 00:23:51
  TRACK 15 AUDIO
    TITLE "0:"
    INDEX 01 00:25:23
  TRACK 16 AUDIO
    TITLE "3:cjc039_3328"
    INDEX 01 00:25:74
  TRACK 17 AUDIO
    TITLE "0:"
    INDEX 01 00:29:68
  TRACK 18 AUDIO
    TITLE "2:cjc039_3329"
    INDEX 01 00:31:41
  TRACK 19 AUDIO
    TITLE "0:"
    INDEX 01 00:32:60
  TRACK 20 AUDIO
    TITLE "3:cjc039_3330"
    INDEX 01 00:33:38
  TRACK 21 AUDIO
    TITLE "0:"
    INDEX 01 00:38:47
  TRACK 22 AUDIO
    TITLE "2:cjc039_3331"
    INDEX 01 00:40:24
  TRACK 23 AUDIO
    TITLE "0:"
    INDEX 01 00:41:59
  TRACK 24 AUDIO
    TITLE "3:cjc039_3332"
    INDEX 01 00:42:37
  TRACK 25 AUDIO
    TITLE "0:"
    INDEX 01 00:47:05
  TRACK 26 AUDIO
    TITLE "2:cjc039_3333"
    INDEX 01 00:48:57
  TRACK 27 AUDIO
    TITLE "0:"
    INDEX 01 00:49:74
  TRACK 28 AUDIO
    TITLE "3:cjc039_3334"
    INDEX 01 00:50:48
  TRACK 29 AUDIO
    TITLE "0:"
    INDEX 01 00:53:62
  TRACK 30 AUDIO
    TITLE "2:cjc039_3335"
    INDEX 01 00:55:38
  TRACK 31 AUDIO
    TITLE "0:"
    INDEX 01 00:56:74
  TRACK 32 AUDIO
    TITLE "3:cjc039_3336"
    INDEX 01 00:57:50
  TRACK 33 AUDIO
    TITLE "0:"
    INDEX 01 01:01:40
  TRACK 34 AUDIO
    TITLE "2:cjc039_3337"
    INDEX 01 01:03:18
  TRACK 35 AUDIO
    TITLE "0:"
    INDEX 01 01:04:07
  TRACK 36 AUDIO
    TITLE "3:cjc039_3338"
    INDEX 01 01:04:56
  TRACK 37 AUDIO
    TITLE "0:"
    INDEX 01 01:07:51
  TRACK 38 AUDIO
    TITLE "2:cjc039_3339"
    INDEX 01 01:09:22
  TRACK 39 AUDIO
    TITLE "0:"
    INDEX 01 01:10:69
  TRACK 40 AUDIO
    TITLE "3:cjc039_3340"
    INDEX 01 01:11:43
  TRACK 41 AUDIO
    TITLE "0:"
    INDEX 01 01:15:11
  TRACK 42 AUDIO
    TITLE "2:cjc039_3341"
    INDEX 01 01:16:61
  TRACK 43 AUDIO
    TITLE "0:"
    INDEX 01 01:18:06
  TRACK 44 AUDIO
    TITLE "3:cjc039_3342"
    INDEX 01 01:18:58
  TRACK 45 AUDIO
    TITLE "0:"
    INDEX 01 01:22:39
  TRACK 46 AUDIO
    TITLE "2:cjc039_3343"
    INDEX 01 01:24:14
  TRACK 47 AUDIO
    TITLE "0:"
    INDEX 01 01:25:41
  TRACK 48 AUDIO
    TITLE "3:cjc039_3344"
    INDEX 01 01:26:21
  TRACK 49 AUDIO
    TITLE "0:"
    INDEX 01 01:30:42
  TRACK 50 AUDIO
    TITLE "2:cjc039_3345"
    INDEX 01 01:32:15
  TRACK 51 AUDIO
    TITLE "0:"
    INDEX 01 01:33:17
  TRACK 52 AUDIO
    TITLE "3:cjc039_3346"
    INDEX 01 01:34:01
  TRACK 53 AUDIO
    TITLE "0:"
    INDEX 01 01:38:12
  TRACK 54 AUDIO
    TITLE "2:cjc039_3347"
    INDEX 01 01:39:64
  TRACK 55 AUDIO
    TITLE "0:"
    INDEX 01 01:41:16
  TRACK 56 AUDIO
    TITLE "3:cjc039_3348"
    INDEX 01 01:41:63
  TRACK 57 AUDIO
    TITLE "0:"
    INDEX 01 01:45:53
  TRACK 58 AUDIO
    TITLE "2:cjc039_3349"
    INDEX 01 01:47:27
  TRACK 59 AUDIO
    TITLE "0:"
    INDEX 01 01:48:32
  TRACK 60 AUDIO
    TITLE "3:cjc039_3350"
    INDEX 01 01:49:10
  TRACK 61 AUDIO
    TITLE "0:"
    INDEX 01 01:52:53
  TRACK 62 AUDIO
    TITLE "2:cjc039_3351"
    INDEX 01 01:54:29
  TRACK 63 AUDIO
    TITLE "0:"
    INDEX 01 01:55:62
  TRACK 64 AUDIO
    TITLE "3:cjc039_3352"
    INDEX 01 01:56:36
  TRACK 65 AUDIO
    TITLE "0:"
    INDEX 01 02:02:22
  TRACK 66 AUDIO
    TITLE "2:cjc039_3353"
    INDEX 01 02:04:00
  TRACK 67 AUDIO
    TITLE "0:"
    INDEX 01 02:04:72
  TRACK 68 AUDIO
    TITLE "3:cjc039_3354"
    INDEX 01 02:05:48
  TRACK 69 AUDIO
    TITLE "0:"
    INDEX 01 02:09:71
  TRACK 70 AUDIO
    TITLE "2:cjc039_3355"
    INDEX 01 02:11:43
  TRACK 71 AUDIO
    TITLE "0:"
    INDEX 01 02:12:54
  TRACK 72 AUDIO
    TITLE "3:cjc039_3356"
    INDEX 01 02:13:28
  TRACK 73 AUDIO
    TITLE "0:"
    INDEX 01 02:18:14
  TRACK 74 AUDIO
    TITLE "2:cjc039_3357"
    INDEX 01 02:19:64
  TRACK 75 AUDIO
    TITLE "0:"
    INDEX 01 02:20:67
  TRACK 76 AUDIO
    TITLE "3:cjc039_3358"
    INDEX 01 02:21:39
  TRACK 77 AUDIO
    TITLE "0:"
    INDEX 01 02:25:29
  TRACK 78 AUDIO
    TITLE "2:cjc039_3359"
    INDEX 01 02:26:74
  TRACK 79 AUDIO
    TITLE "0:"
    INDEX 01 02:28:37
  TRACK 80 AUDIO
    TITLE "3:cjc039_3360"
    INDEX 01 02:29:11
  TRACK 81 AUDIO
    TITLE "0:"
    INDEX 01 02:32:71
